<?xml version="1.0" encoding="UTF-8" standalone="no"?>
<!-- Created with Inkscape (http://www.inkscape.org/) -->

<svg
   xmlns:dc="http://purl.org/dc/elements/1.1/"
   xmlns:cc="http://creativecommons.org/ns#"
   xmlns:rdf="http://www.w3.org/1999/02/22-rdf-syntax-ns#"
   xmlns:svg="http://www.w3.org/2000/svg"
   xmlns="http://www.w3.org/2000/svg"
   xmlns:sodipodi="http://sodipodi.sourceforge.net/DTD/sodipodi-0.dtd"
   xmlns:inkscape="http://www.inkscape.org/namespaces/inkscape"
   width="210mm"
   height="297mm"
   id="svg2"
   version="1.1"
   inkscape:version="0.48.4 r9939"
   sodipodi:docname="AccelKnife-Logo.svg">
  <defs
     id="defs4" />
  <sodipodi:namedview
     id="base"
     pagecolor="#ffffff"
     bordercolor="#666666"
     borderopacity="1.0"
     inkscape:pageopacity="0.0"
     inkscape:pageshadow="2"
     inkscape:zoom="1.3461919"
     inkscape:cx="318.56304"
     inkscape:cy="526.18109"
     inkscape:document-units="px"
     inkscape:current-layer="layer1"
     showgrid="false"
     inkscape:window-width="1920"
     inkscape:window-height="1058"
     inkscape:window-x="1672"
     inkscape:window-y="122"
     inkscape:window-maximized="1" />
  <metadata
     id="metadata7">
    <rdf:RDF>
      <cc:Work
         rdf:about="">
        <dc:format>image/svg+xml</dc:format>
        <dc:type
           rdf:resource="http://purl.org/dc/dcmitype/StillImage" />
        <dc:title></dc:title>
      </cc:Work>
    </rdf:RDF>
  </metadata>
  <g
     inkscape:label="Ebene 1"
     inkscape:groupmode="layer"
     id="layer1">
    <path
       sodipodi:type="arc"
       style="fill:#00ff00;fill-opacity:0.25490196;fill-rule:nonzero;stroke:#000000;stroke-width:1.296;stroke-linecap:butt;stroke-miterlimit:4;stroke-opacity:1;stroke-dasharray:10.36800003, 10.36800003;stroke-dashoffset:0"
       id="path2985"
       sodipodi:cx="174.28572"
       sodipodi:cy="392.36218"
       sodipodi:rx="322.85715"
       sodipodi:ry="322.85715"
       d="m 497.14287,392.36218 a 322.85715,322.85715 0 1 1 -645.7143,0 322.85715,322.85715 0 1 1 645.7143,0 z"
       transform="translate(197.76152,133.81891)"
       inkscape:export-xdpi="35.608791"
       inkscape:export-ydpi="35.608791" />
    <rect
       style="fill:#f10000;fill-opacity:1;fill-rule:nonzero;stroke:#000000;stroke-width:2.05425167;stroke-linecap:butt;stroke-miterlimit:4;stroke-opacity:1;stroke-dasharray:16.43401305, 16.43401305;stroke-dashoffset:0"
       id="rect2987"
       width="170.0576"
       height="483.4801"
       x="578.91235"
       y="20.552271"
       transform="matrix(0.86257425,0.50593049,-0.49409287,0.86940913,0,0)"
       inkscape:export-filename="E:\Projects\CSharp\Accelknife\Docs\path2985.png"
       inkscape:export-xdpi="35.608791"
       inkscape:export-ydpi="35.608791" />
    <path
       style="fill:none;stroke:#000000;stroke-width:1px;stroke-linecap:butt;stroke-linejoin:miter;stroke-opacity:1"
       d="m 298.62014,732.1998 c 0.24761,-0.99045 0.28626,-2.0582 0.74283,-2.97135 0.11074,-0.22147 0.52137,0.11074 0.74284,0 3.0915,-1.54575 -0.79412,0.0513 0.74283,-1.48567 0.17509,-0.17509 0.56775,0.17509 0.74284,0 0.17509,-0.17509 -0.11073,-0.52136 0,-0.74283 0.10192,-0.20385 1.38375,-1.28183 1.48567,-1.48568 0.11074,-0.22147 -0.17509,-0.56775 0,-0.74283 0.17509,-0.17509 0.56775,0.17508 0.74284,0 0.17509,-0.17509 -0.11074,-0.52137 0,-0.74284 0.0977,-0.19547 1.38794,-1.29021 1.48567,-1.48567 0.11074,-0.22147 -0.17509,-0.56775 0,-0.74284 0.17509,-0.17509 0.56775,0.17509 0.74284,0 0.17509,-0.17509 -0.11074,-0.52136 0,-0.74283 0.1566,-0.31321 0.58623,-0.42963 0.74283,-0.74284 0.11074,-0.22147 -0.11073,-0.52137 0,-0.74284 2.46368,-2.46367 -0.35017,0.70036 0.74284,-1.48567 0.31321,-0.62641 1.17246,-0.85926 1.48567,-1.48567 0.11074,-0.22147 -0.11073,-0.52137 0,-0.74284 0.15661,-0.3132 0.58623,-0.42963 0.74284,-0.74283 0.11073,-0.22147 -0.11074,-0.52137 0,-0.74284 0.31321,-0.62641 1.17246,-0.85926 1.48567,-1.48567 0.11074,-0.22147 -0.11073,-0.52137 0,-0.74284 0.31321,-0.62641 1.09719,-0.90294 1.48567,-1.48567 0.24761,-0.49522 0.49523,-0.99045 0.74284,-1.48567 0,-0.24761 -0.11074,-0.52137 0,-0.74284 0.31321,-0.62641 1.09719,-0.90294 1.48567,-1.48567 0.30713,-0.46069 0.43571,-1.02499 0.74284,-1.48567 0.19424,-0.29137 0.49522,-0.49523 0.74283,-0.74284 0.24762,-0.49522 0.43571,-1.02498 0.74284,-1.48567 0.38849,-0.58273 1.2642,-0.82126 1.48567,-1.48567 0.15661,-0.46982 -0.1566,-1.01587 0,-1.48568 0.11074,-0.3322 0.5486,-0.45147 0.74284,-0.74283 0.30712,-0.46069 0.35133,-1.09417 0.74283,-1.48568 0.39151,-0.3915 1.09417,-0.35132 1.48568,-0.74283 0.39151,-0.39151 0.43571,-1.02499 0.74283,-1.48567 0.19425,-0.29137 0.5486,-0.45148 0.74284,-0.74284 0.30712,-0.46069 0.43571,-1.02498 0.74284,-1.48567 0.19424,-0.29137 0.54859,-0.45147 0.74283,-0.74284 0.30713,-0.46069 0.41063,-1.04273 0.74284,-1.48567 0.63031,-0.84042 1.64578,-1.35442 2.22851,-2.22851 0.0922,-0.13837 1.43807,-2.92374 1.48567,-2.97134 0.39151,-0.39151 1.09416,-0.35133 1.48567,-0.74284 0.78302,-0.78302 0.82126,-2.08546 1.48567,-2.97134 0.63032,-0.84043 1.64578,-1.35442 2.22851,-2.22851 0.30713,-0.46069 0.49523,-0.99045 0.74284,-1.48568 0.49522,-0.49522 1.06546,-0.92539 1.48567,-1.48567 0.33221,-0.44294 0.41063,-1.04273 0.74284,-1.48567 0.42021,-0.56028 1.06546,-0.92539 1.48567,-1.48567 0.66441,-0.88589 0.82126,-2.08546 1.48567,-2.97135 0.42021,-0.56028 1.06546,-0.92539 1.48567,-1.48567 0.33221,-0.44294 0.35133,-1.09416 0.74284,-1.48567 0.39151,-0.39151 1.09416,-0.35133 1.48567,-0.74284 0.39151,-0.39151 0.49523,-0.99045 0.74284,-1.48567 0.86413,-1.72827 0.88391,-1.92138 2.22851,-3.71418 2.41879,-3.22506 -2.1148,4.26749 2.2285,-2.97135 0.28487,-0.47477 0.41063,-1.04273 0.74284,-1.48567 0.42021,-0.56028 1.06546,-0.92539 1.48567,-1.48567 0.20507,-0.27342 1.28061,-2.69793 1.48568,-2.97134 0.42021,-0.56029 1.06546,-0.92539 1.48567,-1.48568 0.3322,-0.44294 0.45797,-1.01089 0.74283,-1.48567 0.45933,-0.76555 1.02635,-1.46296 1.48568,-2.22851 0.28486,-0.47477 0.41063,-1.04273 0.74283,-1.48567 0.42021,-0.56028 1.04817,-0.93879 1.48567,-1.48567 0.55772,-0.69714 0.92796,-1.53137 1.48568,-2.22851 0.4375,-0.54688 1.04816,-0.93879 1.48567,-1.48567 0.55771,-0.69715 0.92796,-1.53137 1.48567,-2.22851 0.43751,-0.54689 1.04817,-0.93879 1.48567,-1.48567 1.34807,-0.86851 1.36222,-2.55913 2.22851,-3.71418 0.42021,-0.56029 1.04817,-0.93879 1.48567,-1.48568 0.55772,-0.69714 0.92796,-1.53136 1.48568,-2.22851 0.4375,-0.54688 1.04816,-0.93878 1.48567,-1.48567 0.55771,-0.69714 0.92796,-1.53136 1.48567,-2.22851 0.43751,-0.54688 1.04817,-0.93879 1.48567,-1.48567 0.55772,-0.69714 0.92796,-1.53136 1.48568,-2.22851 0.4375,-0.54688 1.04816,-0.93879 1.48567,-1.48567 0.86365,-1.07957 2.10769,-3.37745 2.97134,-4.45702 0.43751,-0.54688 1.04817,-0.93879 1.48568,-1.48567 0.55771,-0.69714 0.92795,-1.53136 1.48567,-2.22851 0.4375,-0.54688 1.04816,-0.93879 1.48567,-1.48567 0.55771,-0.69714 0.92796,-1.53137 1.48567,-2.22851 0.43751,-0.54688 1.04817,-0.93879 1.48567,-1.48567 0.55772,-0.69714 0.92796,-1.53137 1.48568,-2.22851 0.4375,-0.54688 1.04816,-0.93879 1.48567,-1.48567 1.11543,-1.39429 1.85592,-3.06273 2.97134,-4.45702 0.43751,-0.54688 1.04817,-0.93879 1.48568,-1.48567 4.57276,-6.85915 -1.26258,1.57822 2.97134,-3.71418 1.11543,-1.39429 1.70877,-3.19444 2.97135,-4.45702 0.63129,-0.63129 1.59721,-0.85438 2.2285,-1.48567 0.63129,-0.63129 0.99045,-1.48567 1.48568,-2.22851 0.99044,-1.48567 1.85591,-3.06273 2.97134,-4.45702 0.43751,-0.54688 1.04817,-0.93878 1.48567,-1.48567 0.55772,-0.69714 0.99045,-1.48567 1.48568,-2.22851 0.99044,-1.48567 1.98089,-2.97134 2.97134,-4.45701 0.49522,-0.74284 0.92796,-1.53137 1.48567,-2.22851 0.43751,-0.54689 1.04817,-0.93879 1.48568,-1.48567 1.11542,-1.39429 1.98089,-2.97135 2.97134,-4.45702 1.9809,-2.97135 3.96179,-5.94269 5.94269,-8.91404 0.49522,-0.74283 0.92796,-1.53136 1.48567,-2.2285 2.44034,-3.05043 0.68496,0.28698 2.97135,-3.71418 0.5494,-0.96146 0.87142,-2.04997 1.48567,-2.97135 0.38848,-0.58273 1.04816,-0.93879 1.48567,-1.48567 0.55771,-0.69714 0.99045,-1.48567 1.48567,-2.22851 0.49523,-0.74284 1.08641,-1.42998 1.48568,-2.22851 0.35017,-0.70035 0.39266,-1.52815 0.74283,-2.22851 0.39926,-0.79852 0.99045,-1.48567 1.48567,-2.22851 1.48568,-2.2285 2.97135,-4.45701 4.45702,-6.68552 0.49522,-0.74284 1.08641,-1.42998 1.48567,-2.22851 0.35018,-0.70035 0.39266,-1.52816 0.74284,-2.22851 0.79852,-1.59705 2.17282,-2.85997 2.97134,-4.45701 0.35018,-0.70036 0.39266,-1.52816 0.74284,-2.22851 0.39926,-0.79853 1.02634,-1.46296 1.48567,-2.22851 0.28487,-0.47478 0.45797,-1.0109 0.74284,-1.48567 0.91866,-1.53111 2.17282,-2.85997 2.97134,-4.45702 0.35018,-0.70035 0.45203,-1.5015 0.74284,-2.22851 1.11184,-2.77961 0.48449,-0.22615 2.22851,-3.71418 2.12594,-4.25189 -0.46154,-0.46883 1.48567,-3.71418 1.04641,-1.74402 1.5493,-2.01616 2.22851,-3.71418 2.46368,-7.39103 -0.70035,1.75088 1.48567,-3.71418 0.43772,-1.09429 1.04796,-3.36273 1.48567,-4.45702 0.20563,-0.51408 0.53721,-0.9716 0.74284,-1.48567 0.2908,-0.72702 0.45203,-1.5015 0.74284,-2.22851 0.61476,-1.5369 1.61374,-2.92012 2.2285,-4.45702 0.29081,-0.72701 0.45203,-1.50149 0.74284,-2.22851 0.41126,-1.02815 0.99045,-1.98089 1.48567,-2.97134 0.24761,-0.49522 0.60855,-0.94853 0.74284,-1.48567 0.12011,-0.48044 -0.12011,-1.00524 0,-1.48568 0.13429,-0.53714 0.49522,-0.99044 0.74283,-1.48567 0.49523,-0.99045 1.07442,-1.94319 1.48568,-2.97134 2.99103,-7.47759 -0.58001,1.57718 0.74283,-3.71418 0.3688,-1.47519 1.85971,-2.98183 2.22851,-4.45702 0.12011,-0.48044 -0.12011,-1.00523 0,-1.48567 0.10825,-0.433 1.37742,-2.53835 1.48567,-2.97135 0.12011,-0.48043 -0.1566,-1.01586 0,-1.48567 0.11074,-0.33221 0.49523,-0.49522 0.74284,-0.74284 0.24761,-0.49522 0.60855,-0.94852 0.74284,-1.48567 0.12011,-0.48044 -0.12011,-1.00523 0,-1.48567 0.13428,-0.53715 0.49522,-0.99045 0.74283,-1.48567 0.24761,-0.49523 0.43571,-1.02499 0.74284,-1.48567 0.19424,-0.29137 0.6321,-0.41063 0.74283,-0.74284 0.15661,-0.46981 -0.1201,-1.00524 0,-1.48567 0.13429,-0.53715 0.49523,-0.99045 0.74284,-1.48568 0.24761,-0.49522 0.43571,-1.02498 0.74284,-1.48567 1.13322,-1.69983 0.588,0.46449 1.48567,-2.22851 0.0783,-0.2349 -0.0783,-0.50793 0,-0.74283 0.17509,-0.52527 0.49522,-0.99045 0.74284,-1.48567 0.24761,-0.49523 0.43571,-1.02499 0.74283,-1.48568 0.19424,-0.29136 0.5486,-0.45147 0.74284,-0.74283 0.81314,-1.21971 0.67253,-1.75164 1.48567,-2.97135 1.13322,-1.69983 0.58801,0.46449 1.48567,-2.22851 0.0783,-0.2349 -0.0783,-0.50793 0,-0.74283 0.17509,-0.52527 0.49523,-0.99045 0.74284,-1.48567 0.24761,-0.49523 0.43571,-1.02499 0.74283,-1.48568 0.19425,-0.29136 0.5486,-0.45147 0.74284,-0.74283 0.30713,-0.46069 0.43571,-1.02499 0.74284,-1.48568 0.19424,-0.29136 0.54859,-0.45147 0.74283,-0.74283 2.693,-5.386 -0.78301,1.17453 1.48568,-2.22851 0.30712,-0.46069 0.41063,-1.04273 0.74283,-1.48567 0.63032,-0.84043 1.64578,-1.35442 2.22851,-2.22851 0.30713,-0.46069 0.43571,-1.02499 0.74284,-1.48567 0.19424,-0.29137 0.54859,-0.45148 0.74283,-0.74284 0.30713,-0.46069 0.43571,-1.02498 0.74284,-1.48567 0.19424,-0.29137 0.54859,-0.45147 0.74283,-0.74284 0.30713,-0.46069 0.43572,-1.02498 0.74284,-1.48567 0.19424,-0.29136 0.54859,-0.45147 0.74284,-0.74284 0.30712,-0.46068 0.43571,-1.02498 0.74283,-1.48567 0.19425,-0.29136 0.49523,-0.49522 0.74284,-0.74283 0.24761,-0.49523 0.43571,-1.02499 0.74284,-1.48568 0.19424,-0.29136 0.54859,-0.45147 0.74283,-0.74283 0.30713,-0.46069 0.43571,-1.02499 0.74284,-1.48568 0.19424,-0.29136 0.54859,-0.45147 0.74283,-0.74283 0.30713,-0.46069 0.43572,-1.02499 0.74284,-1.48567 0.19424,-0.29137 0.54859,-0.45148 0.74284,-0.74284 1.13867,-1.70801 0.347,-2.00618 1.48567,-3.71418 0.38848,-0.58273 1.09719,-0.90294 1.48567,-1.48567 0.24761,-0.49523 0.49523,-0.99045 0.74284,-1.48568 0,-0.24761 -0.11074,-0.52136 0,-0.74283 0.1566,-0.31321 0.54859,-0.45147 0.74283,-0.74284 0.30713,-0.46069 0.43571,-1.02498 0.74284,-1.48567 0.19424,-0.29136 0.58623,-0.42963 0.74284,-0.74284 0.11073,-0.22147 -0.11074,-0.52136 0,-0.74283 0.1566,-0.31321 0.58623,-0.42963 0.74283,-0.74284 0.11074,-0.22147 -0.11073,-0.52136 0,-0.74283 0.0975,-0.19497 1.38819,-1.29072 1.48567,-1.48568 0.11074,-0.22147 -0.11073,-0.52136 0,-0.74283 0.15661,-0.31321 0.58624,-0.42963 0.74284,-0.74284 0.22147,-0.44294 -0.22147,-1.04273 0,-1.48567 0.1566,-0.31321 0.58623,-0.42963 0.74284,-0.74284 0.11073,-0.22147 -0.17509,-0.56775 0,-0.74283 0.17508,-0.17509 0.56774,0.17508 0.74283,0 0.35018,-0.35018 -0.35017,-1.1355 0,-1.48568 0.17509,-0.17508 0.56775,0.17509 0.74284,0 0.35018,-0.35017 -0.35018,-1.13549 0,-1.48567 0.17509,-0.17509 0.56775,0.17509 0.74284,0 0.35017,-0.35018 -0.35018,-1.13549 0,-1.48567 0.99044,-0.99045 0.74283,1.23806 0.74283,-0.74284"
       id="path3777"
       inkscape:connector-curvature="0"
       inkscape:export-filename="E:\Projects\CSharp\Accelknife\Docs\path2985.png"
       inkscape:export-xdpi="35.608791"
       inkscape:export-ydpi="35.608791" />
    <path
       style="fill:none;stroke:#000000;stroke-width:1px;stroke-linecap:butt;stroke-linejoin:miter;stroke-opacity:1"
       d="m 361.01837,772.31295 c 0.99045,-0.74284 2.00459,-1.4551 2.97135,-2.22851 1.57825,-1.2626 -0.0651,-1.45311 1.48567,-2.22851 1.02464,-0.51231 0.66445,0.89962 1.48567,-0.74283 0.65749,-1.31499 -1.10492,-0.25384 0.74284,-1.48567 1.08252,-0.72169 1.54723,-0.46376 2.22851,-1.48568 0.30712,-0.46068 0.43571,-1.02498 0.74283,-1.48567 0.38849,-0.58273 0.99045,-0.99045 1.48568,-1.48567 0.74283,-0.74284 1.48567,-1.48567 2.2285,-2.22851 1.9809,-1.9809 3.9618,-3.96179 5.94269,-5.94269 0.49523,-0.49522 0.99045,-0.99045 1.48568,-1.48567 0.49522,-0.49523 1.06546,-0.92539 1.48567,-1.48567 0.3322,-0.44295 0.41063,-1.04273 0.74283,-1.48568 1.15468,-1.53957 3.23481,-2.92925 4.45702,-4.45701 0.55772,-0.69715 0.92796,-1.53137 1.48567,-2.22851 0.87502,-1.09377 2.09633,-1.87758 2.97135,-2.97135 0.55771,-0.69714 0.85438,-1.59722 1.48567,-2.2285 3.86095,-3.86095 0.77376,0.70418 3.71418,-2.97135 1.11543,-1.39428 1.85592,-3.06273 2.97135,-4.45702 1.09376,-1.36721 2.59329,-2.36911 3.71418,-3.71418 0.57154,-0.68585 0.91413,-1.54265 1.48567,-2.22851 0.67253,-0.80703 1.55598,-1.42147 2.22851,-2.2285 0.57154,-0.68586 0.91413,-1.54266 1.48567,-2.22851 0.67253,-0.80704 1.55598,-1.42147 2.22851,-2.22851 0.57154,-0.68585 0.91413,-1.54266 1.48567,-2.22851 0.67253,-0.80704 1.55598,-1.42147 2.22851,-2.22851 0.57154,-0.68585 0.99045,-1.48567 1.48567,-2.22851 0.74284,-0.99044 1.42279,-2.03134 2.22851,-2.97134 0.68367,-0.79762 1.6179,-1.37366 2.22851,-2.22851 0.64364,-0.90109 0.84203,-2.07025 1.48567,-2.97134 0.61061,-0.85485 1.54483,-1.43089 2.22851,-2.22851 2.08088,-2.4277 2.03448,-2.84828 3.71418,-5.19986 0.71961,-1.00745 1.57234,-1.92147 2.22851,-2.97134 0.5869,-0.93904 0.84203,-2.07025 1.48567,-2.97135 6.07746,-8.50843 -1.90612,4.98117 4.45702,-5.19985 0.58689,-0.93903 0.89877,-2.03231 1.48567,-2.97134 2.65725,-4.2516 1.61886,-1.53305 3.71418,-5.19986 0.5494,-0.96145 0.89878,-2.03231 1.48567,-2.97134 2.65725,-4.2516 1.61887,-1.53305 3.71418,-5.19985 0.54941,-0.96146 0.89878,-2.03231 1.48568,-2.97135 4.26095,-5.68128 0.45122,-0.23251 3.71418,-5.94269 2.09531,-3.6668 1.05693,-0.94826 3.71418,-5.19985 0.58689,-0.93904 0.93627,-2.00989 1.48567,-2.97135 2.09532,-3.6668 1.05693,-0.94825 3.71418,-5.19985 0.5869,-0.93903 0.89878,-2.03231 1.48567,-2.97134 2.65725,-4.2516 1.61887,-1.53305 3.71418,-5.19986 0.54941,-0.96145 0.84204,-2.07025 1.48568,-2.97134 0.6106,-0.85485 1.6179,-1.37366 2.2285,-2.22851 0.64364,-0.90109 0.99045,-1.9809 1.48568,-2.97134 0.96908,-1.93816 2.00226,-4.00454 2.97134,-5.94269 0.49523,-0.99045 0.84204,-2.07026 1.48567,-2.97135 0.61061,-0.85485 1.6179,-1.37366 2.22851,-2.22851 0.017,-0.0237 2.93098,-5.87205 2.97135,-5.94269 0.44294,-0.77514 1.04273,-1.45336 1.48567,-2.2285 1.0988,-1.92291 1.87254,-4.01979 2.97134,-5.94269 1.56741,-2.74296 1.74692,-1.93472 2.97135,-5.19986 0.35847,-0.95592 0.34067,-2.03296 0.74283,-2.97134 0.35169,-0.82059 1.04274,-1.45336 1.48568,-2.22851 0.5494,-0.96145 0.93627,-2.00989 1.48567,-2.97134 0.44294,-0.77515 1.13399,-1.40792 1.48567,-2.22851 0.65557,-1.52966 0.8301,-4.41303 1.48567,-5.94269 0.35169,-0.82059 1.13399,-1.40792 1.48568,-2.22851 0.40216,-0.93838 0.38436,-2.01542 0.74283,-2.97135 0.38882,-1.03684 1.04947,-1.95352 1.48567,-2.97134 1.79586,-4.19032 -0.39909,-0.1738 1.48568,-5.19985 0.38882,-1.03685 1.04946,-1.95353 1.48567,-2.97135 0.61689,-1.43941 0.86878,-3.0176 1.48567,-4.45701 0.43621,-1.01782 1.04947,-1.95353 1.48567,-2.97135 1.0254,-2.39258 1.20312,-5.03578 2.22851,-7.42836 0.43621,-1.01782 1.04947,-1.95353 1.48568,-2.97135 0.30844,-0.7197 0.49522,-1.48567 0.74283,-2.2285 0.24761,-0.74284 0.52773,-1.47562 0.74284,-2.22851 0.28047,-0.98165 0.34067,-2.03296 0.74283,-2.97135 0.35169,-0.82059 1.08641,-1.42998 1.48568,-2.22851 0.35017,-0.70035 0.49522,-1.48567 0.74283,-2.2285 0.49523,-1.48568 0.86878,-3.01761 1.48567,-4.45702 0.65432,-1.52673 1.61162,-2.91479 2.22851,-4.45702 0.29081,-0.72701 0.39266,-1.52815 0.74284,-2.22851 0.39926,-0.79852 1.08641,-1.42998 1.48567,-2.2285 0.70035,-1.40071 0.78532,-3.05632 1.48567,-4.45702 0.39927,-0.79853 1.02635,-1.46296 1.48568,-2.22851 0.28486,-0.47477 0.45797,-1.0109 0.74283,-1.48567 0.45933,-0.76555 1.08641,-1.42999 1.48567,-2.22851 0.35018,-0.70035 0.39266,-1.52816 0.74284,-2.22851 4.46014,-8.92027 -1.17422,3.1951 2.97135,-3.71418 0.40285,-0.67143 0.33997,-1.55708 0.74283,-2.22851 0.36033,-0.60055 1.04817,-0.93879 1.48567,-1.48567 0.55772,-0.69714 0.92796,-1.53137 1.48568,-2.22851 0.87501,-1.09377 2.25068,-1.77025 2.97134,-2.97134 0.40286,-0.67144 0.33998,-1.55708 0.74284,-2.22851 0.36033,-0.60055 0.99044,-0.99045 1.48567,-1.48568 1.48567,-1.48567 2.97134,-2.97134 4.45702,-4.45701 0.49522,-0.49523 0.99044,-0.99045 1.48567,-1.48567 0.49522,-0.49523 1.06546,-0.92539 1.48567,-1.48568 0.33221,-0.44294 0.41063,-1.04273 0.74284,-1.48567 1.24796,-1.66395 3.20905,-2.79306 4.45701,-4.45702 0.33221,-0.44294 0.41063,-1.04273 0.74284,-1.48567 0.42021,-0.56028 0.99045,-0.99045 1.48567,-1.48567 0.99045,-0.99045 1.9809,-1.9809 2.97135,-2.97135 1.73328,-1.73328 3.46657,-3.46656 5.19985,-5.19985 0.49522,-0.49522 1.06546,-0.92539 1.48567,-1.48567 0.33221,-0.44294 0.35133,-1.09416 0.74284,-1.48567 0.39151,-0.39151 1.04273,-0.41063 1.48567,-0.74284 0.56028,-0.42021 0.99045,-0.99045 1.48567,-1.48567 0.49523,-0.49523 1.06546,-0.92539 1.48568,-1.48567 0.3322,-0.44295 0.35132,-1.09417 0.74283,-1.48568 0.39151,-0.39151 1.09416,-0.35132 1.48567,-0.74283 0.39151,-0.39151 0.41063,-1.04273 0.74284,-1.48567 0.42021,-0.56029 1.06546,-0.92539 1.48567,-1.48568 0.33221,-0.44294 0.35133,-1.09416 0.74284,-1.48567 0.39151,-0.39151 1.09416,-0.35133 1.48567,-0.74284 0.39151,-0.3915 0.41063,-1.04273 0.74284,-1.48567 3.21298,-3.21298 0.11642,0.19679 2.22851,-2.97134 0.58272,-0.8741 1.59819,-1.38809 2.2285,-2.22851 0.66442,-0.88588 0.70266,-2.18833 1.48568,-2.97135 0.39151,-0.3915 1.09416,-0.35132 1.48567,-0.74283 0.51194,-0.51194 1.68382,-3.63998 2.22851,-4.45702 0.58273,-0.87409 1.59819,-1.38808 2.22851,-2.22851 0.3322,-0.44294 0.43571,-1.02498 0.74283,-1.48567 0.19424,-0.29136 0.5486,-0.45147 0.74284,-0.74284 0.30712,-0.46068 0.43571,-1.02498 0.74283,-1.48567 0.19425,-0.29136 0.49523,-0.49522 0.74284,-0.74283 0.24761,-0.49523 0.43571,-1.02499 0.74284,-1.48568 0.19424,-0.29136 0.49522,-0.49522 0.74283,-0.74283 0.24761,-0.24761 0.5486,-0.45147 0.74284,-0.74284 0.30712,-0.46069 0.43571,-1.02498 0.74283,-1.48567 0.19425,-0.29137 0.58624,-0.42963 0.74284,-0.74284 0.11074,-0.22147 -0.11073,-0.52136 0,-0.74283 0.4457,-0.89141 1.78281,-1.33711 2.22851,-2.22851 0.11073,-0.22147 -0.11074,-0.52137 0,-0.74284 2.46368,-2.46368 -0.35018,0.70035 0.74284,-1.48567 0.1566,-0.31321 0.58623,-0.42963 0.74283,-0.74284 0.11074,-0.22147 -0.11073,-0.52136 0,-0.74283 0.15661,-0.31321 0.58623,-0.42963 0.74284,-0.74284 0.22147,-0.44294 -0.35018,-1.13549 0,-1.48567 0.17509,-0.17509 0.56775,0.17509 0.74283,0 0.17509,-0.17509 0,-0.49523 0,-0.74284 0,-1.35723 -0.17816,-0.74283 -1.48567,-0.74283"
       id="path3779"
       inkscape:connector-curvature="0"
       inkscape:export-filename="E:\Projects\CSharp\Accelknife\Docs\path2985.png"
       inkscape:export-xdpi="35.608791"
       inkscape:export-ydpi="35.608791" />
    <path
       style="fill:none;stroke:#000000;stroke-width:1px;stroke-linecap:butt;stroke-linejoin:miter;stroke-opacity:1"
       d="m 329.07642,728.48562 c -0.58211,-2.54997 2.93116,-2.14815 3.71418,-3.71418 0.11073,-0.22147 -0.11074,-0.52137 0,-0.74284 0.1566,-0.31321 0.49522,-0.49522 0.74284,-0.74284 0.74283,-0.74283 1.48567,-1.48567 2.2285,-2.2285 0.24762,-0.24762 0.5486,-0.45148 0.74284,-0.74284 0.30712,-0.46069 0.43571,-1.02499 0.74284,-1.48567 1.13771,-1.70657 0.4243,0.31853 2.2285,-1.48568 0.39151,-0.3915 0.43572,-1.02498 0.74284,-1.48567 0.58273,-0.87409 1.59819,-1.38808 2.22851,-2.22851 0.33221,-0.44294 0.41063,-1.04273 0.74284,-1.48567 0.42021,-0.56028 0.99044,-0.99045 1.48567,-1.48567 0.49522,-0.49522 0.92539,-1.06546 1.48567,-1.48567 0.44294,-0.33221 1.04273,-0.41063 1.48567,-0.74284 0.56028,-0.42021 0.99045,-0.99045 1.48567,-1.48567 0.99045,-0.99045 1.9809,-1.9809 2.97135,-2.97135 0.49522,-0.49522 0.93879,-1.04816 1.48567,-1.48567 0.69714,-0.55771 1.53137,-0.92796 2.22851,-1.48567 1.90239,-1.52191 3.29747,-3.67795 5.19985,-5.19985 1.39429,-1.11543 3.19444,-1.70877 4.45702,-2.97135 0.63129,-0.63129 0.85438,-1.59722 1.48567,-2.22851 1.26258,-1.26258 3.08532,-1.82826 4.45702,-2.97134 6.51062,-6.51062 -1.74819,1.45682 4.45702,-3.71418 0.80704,-0.67253 1.37365,-1.6179 2.2285,-2.22851 0.9011,-0.64364 2.07026,-0.84204 2.97135,-1.48567 0.85485,-0.61061 1.42147,-1.55598 2.22851,-2.22851 0.68585,-0.57154 1.54266,-0.91413 2.22851,-1.48567 0.80704,-0.67254 1.43088,-1.54484 2.2285,-2.22851 0.94001,-0.80572 2.03134,-1.42279 2.97135,-2.22851 2.38581,-2.04499 4.29971,-4.64054 6.68553,-6.68553 0.94,-0.80572 2.03133,-1.42279 2.97134,-2.2285 1.59524,-1.36736 2.86177,-3.08967 4.45702,-4.45702 0.94,-0.80572 2.0959,-1.35307 2.97134,-2.22851 0.87544,-0.87544 1.42279,-2.03134 2.22851,-2.97134 0.68367,-0.79763 1.54483,-1.43089 2.22851,-2.22851 0.80572,-0.94001 1.42279,-2.03134 2.22851,-2.97135 0.68367,-0.79762 1.54483,-1.43089 2.22851,-2.22851 2.18558,-2.54985 3.99524,-5.44477 5.94268,-8.17119 1.43922,-2.01491 3.14468,-3.84295 4.45702,-5.94269 0.5869,-0.93904 0.89878,-2.03231 1.48567,-2.97135 1.31234,-2.09974 3.14468,-3.84294 4.45702,-5.94269 3.43161,-5.49057 -0.55073,-0.34578 2.97135,-6.68552 0.60125,-1.08226 1.57233,-1.92147 2.2285,-2.97135 3.43161,-5.49057 -0.55073,-0.34578 2.97135,-6.68552 0.60125,-1.08226 1.57234,-1.92147 2.22851,-2.97135 3.43161,-5.49057 -0.55074,-0.34578 2.97134,-6.68552 0.60126,-1.08226 1.57234,-1.92147 2.22851,-2.97135 1.17379,-1.87807 1.79755,-4.06462 2.97134,-5.94269 0.65618,-1.04987 1.57234,-1.92147 2.22851,-2.97134 1.40666,-2.25066 1.88763,-4.24716 2.97135,-6.68553 1.3429,-3.02153 2.97812,-5.95625 4.45701,-8.91403 0.49523,-0.99045 0.99045,-1.9809 1.48568,-2.97135 0.49522,-0.99044 0.89877,-2.03231 1.48567,-2.97134 0.65617,-1.04987 1.57234,-1.92147 2.22851,-2.97134 0.58689,-0.93904 0.99045,-1.9809 1.48567,-2.97135 0.99045,-1.9809 1.87254,-4.01978 2.97134,-5.94269 0.44295,-0.77515 1.04274,-1.45336 1.48568,-2.22851 1.0988,-1.9229 1.87254,-4.01978 2.97134,-5.94269 0.44294,-0.77514 1.04273,-1.45336 1.48567,-2.2285 4.48957,-8.97914 -1.2285,2.14987 2.97135,-5.19986 0.5494,-0.96145 0.93627,-2.00989 1.48567,-2.97134 1.32568,-2.31994 3.13134,-4.36559 4.45702,-6.68553 3.76987,-6.59727 -0.64826,0.22956 2.97134,-5.19985 0.99045,-1.48567 1.9809,-2.97135 2.97135,-4.45702 0.49522,-0.74283 1.08641,-1.42998 1.48567,-2.22851 0.35018,-0.70035 0.39266,-1.52815 0.74284,-2.2285 0.39926,-0.79853 0.99044,-1.48568 1.48567,-2.22851 0.99045,-1.48568 1.85591,-3.06274 2.97134,-4.45702 0.43751,-0.54688 1.04817,-0.93879 1.48567,-1.48567 0.55772,-0.69715 0.92796,-1.53137 1.48568,-2.22851 0.4375,-0.54688 1.04816,-0.93879 1.48567,-1.48567 0.55771,-0.69715 0.92796,-1.53137 1.48567,-2.22851 0.43751,-0.54689 0.99045,-0.99045 1.48567,-1.48567 0.49523,-0.74284 0.92796,-1.53137 1.48568,-2.22851 0.4375,-0.54689 0.99044,-0.99045 1.48567,-1.48568 0.99045,-0.99044 1.9809,-1.98089 2.97134,-2.97134 0.49523,-0.49522 1.06546,-0.92539 1.48568,-1.48567 0.3322,-0.44294 0.41063,-1.04273 0.74283,-1.48567 1.24797,-1.66396 3.20905,-2.79307 4.45702,-4.45702 0.33221,-0.44294 0.41063,-1.04273 0.74284,-1.48567 0.84042,-1.12057 2.13092,-1.85078 2.97134,-2.97135 0.33221,-0.44294 0.35133,-1.09416 0.74284,-1.48567 0.3915,-0.39151 1.09416,-0.35133 1.48567,-0.74284 0.39151,-0.39151 0.43571,-1.02498 0.74283,-1.48567 0.72871,-1.09306 2.24264,-1.87828 2.97135,-2.97134 0.30712,-0.46069 0.43571,-1.02499 0.74284,-1.48568 0.19424,-0.29136 0.49522,-0.49522 0.74283,-0.74283 0.24761,-0.49523 0.43571,-1.02499 0.74284,-1.48567 0.22987,-0.34482 1.25579,-1.14086 1.48567,-1.48568 0.30712,-0.46068 0.43571,-1.02498 0.74284,-1.48567 0.19424,-0.29136 0.58623,-0.42963 0.74283,-0.74284 0.11074,-0.22147 -0.11073,-0.52136 0,-0.74283 0.15661,-0.31321 0.49523,-0.49523 0.74284,-0.74284 0.24761,-0.24761 0.58623,-0.42963 0.74283,-0.74283 0.11074,-0.22147 -0.11073,-0.52137 0,-0.74284 0.15661,-0.31321 0.58624,-0.42963 0.74284,-0.74284 0.11074,-0.22147 -0.11073,-0.52136 0,-0.74283 0.1566,-0.31321 0.58623,-0.42963 0.74284,-0.74284 0.11073,-0.22147 -0.11074,-0.52136 0,-0.74283 0.3132,-0.62642 1.17246,-0.85926 1.48567,-1.48568 0.11073,-0.22147 0,-0.49522 0,-0.74283 0.24761,-0.24762 0.58623,-0.42963 0.74284,-0.74284 0.11073,-0.22147 -0.17509,-0.56775 0,-0.74284 0.17508,-0.17508 0.56774,0.17509 0.74283,0 0.17509,-0.17508 -0.11073,-0.52136 0,-0.74283 0.15661,-0.31321 0.58623,-0.42963 0.74284,-0.74284 0.11073,-0.22147 -0.17509,-0.56775 0,-0.74283 0.17509,-0.17509 0.56775,0.17508 0.74283,0 0.17509,-0.17509 -0.17508,-0.56775 0,-0.74284 0.17509,-0.17509 0.56775,0.17509 0.74284,0 0.17509,-0.17509 -0.17509,-0.56775 0,-0.74284 0.17509,-0.17508 0.56775,0.17509 0.74284,0 0.17508,-0.17508 -0.11074,-0.52136 0,-0.74283 0.1566,-0.31321 0.58623,-0.42963 0.74283,-0.74284 0.11074,-0.22147 -0.17509,-0.56775 0,-0.74283 0.17509,-0.17509 0.56775,0.17508 0.74284,0 0.17509,-0.17509 -0.17509,-0.56775 0,-0.74284 0.17509,-0.17509 0.56775,0.17509 0.74283,0 0.35018,-0.35018 -0.35017,-1.1355 0,-1.48567 0.17509,-0.17509 0.56775,0.17509 0.74284,0 0.17509,-0.17509 -0.11073,-0.52137 0,-0.74284 0.1566,-0.31321 0.58623,-0.42963 0.74284,-0.74284 0.22147,-0.44294 -0.35018,-1.13549 0,-1.48567 0.17508,-0.17509 0.56774,0.17509 0.74283,0 0.35018,-0.35017 -0.35017,-1.13549 0,-1.48567 0.17509,-0.17509 0.56775,0.17509 0.74284,0 0.35018,-0.35018 -0.22147,-1.04273 0,-1.48567 0.1566,-0.31321 0.58623,-0.42963 0.74284,-0.74284 0.22147,-0.44294 -0.22148,-1.04273 0,-1.48567 0.1566,-0.31321 0.58623,-0.42963 0.74283,-0.74284 0.14727,-0.29453 -0.15186,-2.07664 0,-2.22851 0.17509,-0.17508 0.56775,0.17509 0.74284,0 0.20325,-0.20325 -0.20149,-2.56836 0,-2.97134 0.1566,-0.31321 0.58623,-0.42963 0.74283,-0.74284 0.11074,-0.22147 0,-0.49522 0,-0.74283 0,-0.24761 0,-0.49523 0,-0.74284 0,-1.23806 0,-2.47612 0,-3.71418 0,-0.24761 0,-0.49522 0,-0.74284 0,-0.24761 -0.17508,-0.56774 0,-0.74283 0.17509,-0.17509 0.56775,0.17509 0.74284,0 0.17509,-0.17509 -0.11074,-0.52137 0,-0.74284 0.1566,-0.31321 0.58623,-0.42963 0.74284,-0.74283 0.11073,-0.22147 -0.17509,-0.56775 0,-0.74284 0.17508,-0.17509 0.56774,0.17509 0.74283,0 0.17509,-0.17509 -0.11073,-0.52137 0,-0.74284 0.15661,-0.3132 0.58623,-0.42963 0.74284,-0.74283 0.11073,-0.22147 -0.17509,-0.56775 0,-0.74284 0.17509,-0.17509 0.56775,0.17509 0.74283,0 0.17509,-0.17509 -0.11073,-0.52136 0,-0.74283 0.15661,-0.31321 0.49523,-0.49523 0.74284,-0.74284 0.24761,-0.24761 0.58623,-0.42963 0.74284,-0.74284 0.11073,-0.22147 -0.17509,-0.56775 0,-0.74283 0.17509,-0.17509 0.56774,0.17508 0.74283,0 0.17509,-0.17509 -0.11073,-0.52137 0,-0.74284 0.15661,-0.31321 0.58624,-0.42963 0.74284,-0.74284 0.11073,-0.22147 -0.17509,-0.56774 0,-0.74283 0.17509,-0.17509 0.56775,0.17509 0.74284,0 0.17508,-0.17509 -0.17509,-0.56775 0,-0.74284 0.17508,-0.17509 0.56774,0.17509 0.74283,0 0.35018,-0.35017 -0.35017,-1.13549 0,-1.48567 0.17509,-0.17509 0.56775,0.17509 0.74284,0 0.17509,-0.17509 -0.17509,-0.56775 0,-0.74284 0.17509,-0.17508 0.56775,0.17509 0.74283,0 0.17509,-0.17508 -0.17508,-0.56774 0,-0.74283 0.17509,-0.17509 0.56775,0.17509 0.74284,0 0.17509,-0.17509 -0.17509,-0.56775 0,-0.74284 0.17509,-0.17509 0.56775,0.17509 0.74284,0 0.17508,-0.17509 -0.17509,-0.56775 0,-0.74283 0.17508,-0.17509 0.56774,0.17508 0.74283,0 0.17509,-0.17509 -0.17509,-0.56775 0,-0.74284 0.17509,-0.17509 0.56775,0.17509 0.74284,0 0.17509,-0.17509 -0.17509,-0.56775 0,-0.74284 0.17509,-0.17509 0.52136,0.11074 0.74283,0 0.31321,-0.1566 0.42963,-0.58623 0.74284,-0.74283 0.22147,-0.11074 0.56775,0.17508 0.74284,0 0.99045,-0.99045 -1.23806,-0.74284 0.74283,-0.74284"
       id="path3781"
       inkscape:connector-curvature="0"
       inkscape:export-filename="E:\Projects\CSharp\Accelknife\Docs\path2985.png"
       inkscape:export-xdpi="35.608791"
       inkscape:export-ydpi="35.608791" />
    <text
       xml:space="preserve"
       style="font-size:367.92617798000003000px;font-style:normal;font-weight:normal;line-height:125%;letter-spacing:0px;word-spacing:0px;fill:#000000;fill-opacity:1;stroke:none;font-family:Sans"
       x="120.91711"
       y="617.80304"
       id="text3783"
       sodipodi:linespacing="125%"
       inkscape:export-filename="E:\Projects\CSharp\Accelknife\Docs\path2985.png"
       inkscape:export-xdpi="35.608791"
       inkscape:export-ydpi="35.608791"><tspan
         sodipodi:role="line"
         id="tspan3785"
         x="120.91711"
         y="617.80304">A</tspan></text>
  </g>
</svg>
